<svg xmlns="http://www.w3.org/2000/svg" height="96px" viewBox="0 -960 960 960" width="96px">
  <!--
    timer_96dp_18333C_FILL0_wght400_GRAD0_opsz48.svg
    https://fonts.google.com/icons?selected=Material+Symbols+Outlined:timer:FILL@0;wght@400;GRAD@0;opsz@48&icon.query=timer&icon.size=96&icon.color=%2318333C
    Convert to PNG: https://svgtopng.com/
  -->
  <title>timer</title>
  <style>
  .bg   {
    fill: #f4f8f4; /* #f8fcf8 */
    stroke: #d4d8d4;
    stroke-width: 3px;
  }
  .icon {
    fill: #007070; /* teal */ /* Was: #18333C; */
  }
  </style>
  <rect class="bg" width="100%" height="100%" y="-100%" rx="20%" />
  <path class="icon" d=
"M360-860v-60h240v60H360Zm90 447h60v-230h-60v230Zm30 332q-74 0-139.5-28.5T226-187q-49-49-77.5-114.5T120-441q0-74 28.5-139.5T226-695q49-49 114.5-77.5T480-801q67 0 126 22.5T711-716l51-51 42 42-51 51q36 40 61.5 97T840-441q0 74-28.5 139.5T734-187q-49 49-114.5 77.5T480-81Zm0-60q125 0 212.5-87.5T780-441q0-125-87.5-212.5T480-741q-125 0-212.5 87.5T180-441q0 125 87.5 212.5T480-141Zm0-299Z"
/>
</svg>
